<svg xmlns="http://www.w3.org/2000/svg" viewBox="0 0 1600 900" role="img" aria-labelledby="title desc">
  <title id="title">Инженерная инфраструктура Nexus</title>
  <desc id="desc">Серверная стойка, кабельные линии, напольные коробки и модули для СКС-бренда Nexus.</desc>
  <defs>
    <linearGradient id="bg" x1="0" x2="1" y1="0" y2="1">
      <stop offset="0" stop-color="#07111f"/>
      <stop offset="0.45" stop-color="#11304f"/>
      <stop offset="1" stop-color="#eaf4ff"/>
    </linearGradient>
    <linearGradient id="panel" x1="0" x2="1">
      <stop offset="0" stop-color="#132944"/>
      <stop offset="1" stop-color="#1f5e99"/>
    </linearGradient>
    <filter id="shadow" x="-20%" y="-20%" width="140%" height="140%">
      <feDropShadow dx="0" dy="18" stdDeviation="18" flood-color="#06101d" flood-opacity=".32"/>
    </filter>
  </defs>
  <rect width="1600" height="900" fill="url(#bg)"/>
  <path d="M0 650 C220 540 410 600 640 505 C880 405 1035 360 1600 440 L1600 900 L0 900 Z" fill="#f7fbff" opacity=".96"/>
  <path d="M1040 80 L1500 230 L1500 555 L1040 405 Z" fill="#74b7ff" opacity=".18"/>
  <path d="M1040 80 L1500 230" stroke="#b8e1ff" stroke-width="3" opacity=".35"/>
  <path d="M1040 155 L1500 305 M1040 230 L1500 380 M1040 305 L1500 455" stroke="#b8e1ff" stroke-width="2" opacity=".24"/>
  <g filter="url(#shadow)">
    <rect x="915" y="195" width="250" height="410" rx="24" fill="#0d1d31"/>
    <rect x="940" y="225" width="200" height="60" rx="10" fill="url(#panel)"/>
    <rect x="940" y="305" width="200" height="60" rx="10" fill="#172e49"/>
    <rect x="940" y="385" width="200" height="60" rx="10" fill="url(#panel)"/>
    <rect x="940" y="465" width="200" height="60" rx="10" fill="#172e49"/>
    <circle cx="965" cy="255" r="6" fill="#5cf0d8"/>
    <circle cx="988" cy="255" r="6" fill="#8dd8ff"/>
    <circle cx="965" cy="335" r="6" fill="#ffcf5a"/>
    <circle cx="988" cy="335" r="6" fill="#5cf0d8"/>
    <circle cx="965" cy="415" r="6" fill="#8dd8ff"/>
    <circle cx="988" cy="415" r="6" fill="#5cf0d8"/>
    <rect x="985" y="548" width="110" height="22" rx="11" fill="#2a7fca"/>
  </g>
  <g fill="none" stroke-linecap="round" stroke-width="10">
    <path d="M160 640 C360 520 495 700 675 570 C820 465 850 350 942 338" stroke="#0b8cff"/>
    <path d="M160 690 C365 590 520 742 708 615 C835 530 865 435 942 414" stroke="#12b6a6"/>
    <path d="M168 735 C380 650 520 790 715 680 C845 607 872 520 942 495" stroke="#f6b73c"/>
  </g>
  <g filter="url(#shadow)">
    <rect x="280" y="560" width="330" height="120" rx="18" fill="#ffffff"/>
    <rect x="310" y="590" width="270" height="16" rx="8" fill="#cbe8ff"/>
    <rect x="310" y="625" width="112" height="24" rx="8" fill="#0b8cff"/>
    <rect x="440" y="625" width="56" height="24" rx="8" fill="#12b6a6"/>
    <rect x="512" y="625" width="68" height="24" rx="8" fill="#ffcf5a"/>
  </g>
  <g filter="url(#shadow)">
    <rect x="645" y="624" width="210" height="86" rx="14" fill="#24364b"/>
    <rect x="665" y="645" width="170" height="18" rx="9" fill="#eaf4ff"/>
    <circle cx="695" cy="682" r="12" fill="#0b8cff"/>
    <circle cx="735" cy="682" r="12" fill="#12b6a6"/>
    <circle cx="775" cy="682" r="12" fill="#ffcf5a"/>
  </g>
</svg>
